<svg xmlns="http://www.w3.org/2000/svg" data-name="S_Erase_18_N@2x" height="36" id="S_Erase_18_N_2x" viewBox="0 0 36 36" width="36">
  <defs>
    <style>
      .fill {
        fill: #707070;
      }

      
    </style>
  </defs>
  <path class="fill" d="M18.613,28.132a1,1,0,0,0,1.414,0L33.589,14.571a1,1,0,0,0,0-1.414L22.275,1.843a1,1,0,0,0-1.414,0L7.3,15.4a1,1,0,0,0,0,1.414l.707.707-6.3,6.3a2,2,0,0,0,0,2.829l6.505,6.5A2.8,2.8,0,0,0,10.133,34c.107,0,.3,0,.3,0H33.5a.5.5,0,0,0,.5-.5v-1a.5.5,0,0,0-.5-.5H13.331l4.575-4.575ZM10.9,31.607a1,1,0,0,1-1.414,0L3.118,25.243l6.3-6.3,7.071,7.071Z" />
  </svg>