<svg xmlns="http://www.w3.org/2000/svg" data-name="S_Redo_18_N@2x" height="36" id="S_Redo_18_N_2x" viewBox="0 0 36 36" width="36">
  <defs>
    <style>
      .fill {
        fill: #707070;
      }

      
    </style>
  </defs>
  <path class="fill" d="M5.337,12.542A10.391,10.391,0,0,1,12.329,10L25,10V4.8a.8.8,0,0,1,.8-.8.787.787,0,0,1,.527.2l7.524,7.445a.5.5,0,0,1,0,.7L26.332,19.8a.787.787,0,0,1-.527.2.8.8,0,0,1-.8-.8V14H12.123A6.139,6.139,0,0,0,5.9,19.8,5.889,5.889,0,0,0,12,26h7a1,1,0,0,1,1,1v2a1,1,0,0,1-1,1H12.474A10.335,10.335,0,0,1,2.048,20.987,9.947,9.947,0,0,1,5.337,12.542Z" />
  </svg>